<?xml version="1.0" encoding="iso-8859-1"?>
<!-- Generator: Adobe Illustrator 18.0.0, SVG Export Plug-In . SVG Version: 6.00 Build 0)  -->
<!DOCTYPE svg PUBLIC "-//W3C//DTD SVG 1.1//EN" "http://www.w3.org/Graphics/SVG/1.1/DTD/svg11.dtd">
<svg version="1.1" id="Capa_1" xmlns="http://www.w3.org/2000/svg" xmlns:xlink="http://www.w3.org/1999/xlink" x="0px" y="0px"
	 viewBox="0 0 297 297" style="enable-background:new 0 0 297 297;" xml:space="preserve">
<g>
	<path d="M157.209,21.112c2.775,0,5.5-1.129,7.462-3.094c1.975-1.963,3.094-4.687,3.094-7.462c0-2.776-1.119-5.5-3.094-7.464
		C162.709,1.129,159.996,0,157.209,0c-2.776,0-5.5,1.129-7.464,3.093c-1.963,1.964-3.093,4.688-3.093,7.464
		c0,2.775,1.13,5.499,3.093,7.462C151.72,19.983,154.433,21.112,157.209,21.112z"/>
	<path d="M286.596,25.788c-1.963-1.963-4.685-3.093-7.462-3.093c-2.777,0-5.5,1.13-7.463,3.093
		c-1.965,1.964-3.094,4.688-3.094,7.464s1.129,5.5,3.094,7.462c1.974,1.965,4.686,3.094,7.463,3.094
		c2.776,0,5.499-1.129,7.462-3.094c1.974-1.962,3.094-4.686,3.094-7.462S288.569,27.752,286.596,25.788z"/>
	<path d="M261.716,249.128c-2.777,0-5.499,1.128-7.464,3.092c-1.964,1.963-3.093,4.687-3.093,7.463c0,2.777,1.129,5.501,3.093,7.463
		c1.965,1.964,4.686,3.095,7.464,3.095c2.786,0,5.5-1.131,7.463-3.095c1.974-1.962,3.094-4.686,3.094-7.463
		c0-2.775-1.12-5.5-3.094-7.463C267.216,250.256,264.502,249.128,261.716,249.128z"/>
	<path d="M139.791,249.128c-2.775,0-5.489,1.128-7.463,3.092c-1.965,1.963-3.093,4.687-3.093,7.463c0,2.777,1.128,5.501,3.093,7.463
		c1.974,1.964,4.688,3.095,7.463,3.095c2.776,0,5.5-1.131,7.463-3.095c1.975-1.962,3.094-4.686,3.094-7.463
		c0-2.775-1.119-5.5-3.094-7.463C145.291,250.256,142.567,249.128,139.791,249.128z"/>
	<path d="M17.866,231.709c-2.775,0-5.499,1.129-7.463,3.093c-1.964,1.964-3.093,4.688-3.093,7.463c0,2.777,1.129,5.5,3.093,7.464
		c1.964,1.963,4.688,3.094,7.463,3.094c2.777,0,5.5-1.131,7.464-3.094c1.974-1.964,3.093-4.687,3.093-7.464
		c0-2.775-1.119-5.499-3.093-7.463C23.366,232.838,20.644,231.709,17.866,231.709z"/>
	<path d="M206.026,33.622c-12.75,0-25.056,3.264-36.016,9.479c7.144,12.932,11.222,27.784,11.222,43.577
		c0,24.299-9.714,54.165-25.353,77.943c-1.307,1.988-2.641,3.904-3.995,5.764c15.205,25.734,35.184,40.937,54.142,40.937
		c17.418,0,35.933-12.965,50.797-35.568c13.924-21.173,22.574-47.483,22.574-68.662C279.398,66.58,246.483,33.622,206.026,33.622z
		 M224.144,170.494c-1.573,1.572-3.748,2.47-5.976,2.47c-2.218,0-4.392-0.897-5.964-2.47c-1.573-1.573-2.481-3.749-2.481-5.975
		c0-2.218,0.908-4.402,2.481-5.976c1.563-1.572,3.746-2.47,5.964-2.47c2.227,0,4.402,0.897,5.976,2.47
		c1.572,1.573,2.47,3.748,2.47,5.976C226.613,166.745,225.716,168.921,224.144,170.494z M224.144,83.394
		c-1.573,1.584-3.748,2.482-5.976,2.482c-2.228,0-4.401-0.898-5.964-2.482c-1.573-1.562-2.481-3.736-2.481-5.963
		c0-2.229,0.908-4.402,2.481-5.975c1.563-1.574,3.746-2.471,5.964-2.471c2.227,0,4.402,0.896,5.976,2.471
		c1.572,1.572,2.47,3.746,2.47,5.975C226.613,79.657,225.716,81.832,224.144,83.394z"/>
	<path d="M164.343,86.678c0-40.511-32.914-73.467-73.37-73.467c-40.457,0-73.37,32.956-73.37,73.467
		c0,21.18,8.651,47.491,22.574,68.663c14.865,22.604,33.379,35.568,50.796,35.568c17.417,0,35.932-12.964,50.796-35.568
		C155.692,134.169,164.343,107.857,164.343,86.678z M67.383,118.241c-1.572,1.572-3.748,2.47-5.975,2.47
		c-2.218,0-4.392-0.897-5.976-2.47c-1.563-1.573-2.469-3.759-2.469-5.976c0-2.228,0.906-4.401,2.469-5.975
		c1.573-1.563,3.758-2.47,5.976-2.47c2.227,0,4.402,0.907,5.975,2.47c1.572,1.573,2.47,3.747,2.47,5.975
		C69.852,114.482,68.955,116.657,67.383,118.241z M137.055,83.394c-1.573,1.584-3.749,2.482-5.976,2.482
		c-2.217,0-4.402-0.898-5.965-2.482c-1.572-1.562-2.479-3.736-2.479-5.963c0-2.229,0.907-4.402,2.479-5.975
		c1.574-1.574,3.748-2.471,5.965-2.471c2.227,0,4.402,0.896,5.976,2.471c1.571,1.572,2.47,3.746,2.47,5.975
		C139.524,79.657,138.626,81.832,137.055,83.394z"/>
	<path d="M195.472,227.174v59.269c0,5.83,4.726,10.557,10.556,10.557c5.83,0,10.556-4.727,10.556-10.557v-59.267
		c-3.498,0.682-7.021,1.035-10.557,1.035C202.491,228.212,198.968,227.855,195.472,227.174z"/>
	<path d="M80.417,206.766v79.678c0,5.83,4.727,10.557,10.556,10.557c5.83,0,10.557-4.727,10.557-10.557v-79.69
		c-3.499,0.682-7.021,1.047-10.557,1.047C87.437,207.8,83.914,207.447,80.417,206.766z"/>
</g>
<g>
</g>
<g>
</g>
<g>
</g>
<g>
</g>
<g>
</g>
<g>
</g>
<g>
</g>
<g>
</g>
<g>
</g>
<g>
</g>
<g>
</g>
<g>
</g>
<g>
</g>
<g>
</g>
<g>
</g>
</svg>
