<?xml version="1.0" encoding="iso-8859-1"?>
<!-- Generator: Adobe Illustrator 19.0.0, SVG Export Plug-In . SVG Version: 6.00 Build 0)  -->
<svg version="1.1" id="Layer_1" xmlns="http://www.w3.org/2000/svg" xmlns:xlink="http://www.w3.org/1999/xlink" x="0px" y="0px"
	 viewBox="0 0 512 512" style="enable-background:new 0 0 512 512;" xml:space="preserve">
<g>
	<g>
		<path d="M97.297,386.302c-15.867,0-28.775,12.908-28.775,28.775c0,15.867,12.908,28.775,28.775,28.775
			c15.867,0,28.775-12.908,28.775-28.775C126.072,399.211,113.164,386.302,97.297,386.302z M97.297,426.646
			c-6.389,0-11.567-5.18-11.567-11.567c0-6.389,5.178-11.567,11.567-11.567s11.567,5.18,11.567,11.567
			C108.865,421.466,103.686,426.646,97.297,426.646z"/>
	</g>
</g>
<g>
	<g>
		<path d="M508.7,372.962l-81.463-33.652c-2.285-0.945-4.916-0.194-6.36,1.807c-1.447,2.002-1.328,4.737,0.286,6.606l64.008,74.205
			c1.927,2.234,5.296,2.475,7.522,0.556c2.231-1.924,2.48-5.292,0.554-7.523l-49.369-57.235l60.75,25.096
			c2.72,1.126,5.841-0.17,6.966-2.893C512.72,377.206,511.424,374.087,508.7,372.962z"/>
	</g>
</g>
<g>
	<g>
		<path d="M410.493,318.837l-75.055-56.447c-0.818,2.432-1.971,4.795-3.492,7.016c-2.977,4.351-6.951,7.609-11.406,9.691
			l76.546,57.568c4.919,3.7,11.912,2.715,15.617-2.21C416.405,329.532,415.416,322.54,410.493,318.837z"/>
	</g>
</g>
<g>
	<g>
		<path d="M317.122,240.705l-43.31-29.64l-13.218-41.95l17.904,28.205l5.572-26.043c2.665-12.455-5.271-24.713-17.726-27.378
			l-40.218-8.607c-9.329-1.997-16.953,3.387-23.706,9.298c-12.68,11.102-43.522,39.089-43.522,39.089
			c-3.629,3.26-5.489,8.053-5.006,12.907c0.482,4.854,3.246,9.188,7.446,11.671l11.314,6.689
			c-16.874,3.411-30.101,17.786-31.451,35.51l-5.193,68.161c-0.976,12.808-11.803,22.841-24.648,22.841H97.297v-68.9
			c0-10.92-8.853-19.773-19.773-19.773H51.07c-9.226,0-17.225,6.38-19.278,15.375L0.824,403.89
			c-2.224,9.75,0.112,19.983,6.348,27.801c6.236,7.818,15.693,12.373,25.693,12.373h34.374c-7.255-7.52-11.73-17.738-11.73-28.986
			c0-23.042,18.747-41.788,41.789-41.788v-17.284h14.063c20.405,0,37.604-15.938,39.153-36.284l5.193-68.16
			c0.976-12.808,11.803-22.841,24.648-22.841h2.193l-6.286,40.496l10.023,65.706l-23.55,85.899
			c-2.684,9.789,3.076,19.9,12.864,22.584c9.791,2.684,19.901-3.079,22.584-12.865l24.586-89.675
			c0.683-2.489,0.833-5.094,0.442-7.646l-8.556-55.787l8.08,1.729l21.533,58.711l5.799,89.006
			c0.66,10.138,9.419,17.809,19.535,17.145c10.128-0.659,17.804-9.405,17.144-19.534l-5.972-91.652
			c-0.115-1.754-0.48-3.483-1.085-5.134l-18.372-50.092l4.12-19.255c-22.22-15.206-15.173-10.384-25.163-17.22
			c-4.076-2.79-6.373-7.295-6.607-11.875l-2.288-50.946l14.809,47c1.03,3.271,3.128,6.1,5.957,8.036l47.679,32.629
			c6.976,4.776,16.508,2.994,21.288-3.989C325.889,255.013,324.103,245.482,317.122,240.705z M76.678,335.308H48.649
			c-3.594,0-6.507-2.913-6.507-6.507s2.913-6.507,6.507-6.507h28.029c3.594,0,6.507,2.913,6.507,6.507
			S80.272,335.308,76.678,335.308z M76.678,311.065H48.649c-3.594,0-6.507-2.913-6.507-6.507s2.913-6.507,6.507-6.507h28.029
			c3.594,0,6.507,2.913,6.507,6.507S80.272,311.065,76.678,311.065z"/>
	</g>
</g>
<g>
	<g>
		<circle cx="265.115" cy="99.451" r="31.515"/>
	</g>
</g>
<g>
</g>
<g>
</g>
<g>
</g>
<g>
</g>
<g>
</g>
<g>
</g>
<g>
</g>
<g>
</g>
<g>
</g>
<g>
</g>
<g>
</g>
<g>
</g>
<g>
</g>
<g>
</g>
<g>
</g>
</svg>
