<?xml version="1.0" encoding="iso-8859-1"?>
<!-- Generator: Adobe Illustrator 19.0.0, SVG Export Plug-In . SVG Version: 6.00 Build 0)  -->
<svg version="1.1" id="Layer_1" xmlns="http://www.w3.org/2000/svg" xmlns:xlink="http://www.w3.org/1999/xlink" x="0px" y="0px"
	 viewBox="0 0 512.001 512.001" style="enable-background:new 0 0 512.001 512.001;" xml:space="preserve">
<g>
	<g>
		<path d="M162.629,341.12c-19.036-0.198-32.754-22.778-20.838-52.144c3.041-7.493-5.405-25.235-8.596-41.856l-2.708-1.315
			l-15.659,80.848c-1.354,6.993,4.036,13.456,11.089,13.456c4.379,0,9.633,0,15.515,0v147.493c0,13.475,10.924,24.399,24.399,24.399
			c13.475,0,24.399-10.924,24.399-24.399V344.424C181.53,343.729,173.284,341.231,162.629,341.12z"/>
	</g>
</g>
<g>
	<g>
		<circle cx="195.499" cy="42.14" r="42.14"/>
	</g>
</g>
<g>
	<g>
		<path d="M161.462,186.613l4.396-35.939c0,0-14.954-42.198-18.147-51.207c-15.615,4.712-22.872,18.011-28.456,28.251
			c-5.797,10.633-30.546,49.477-34.403,55.318c-7.322,11.089-2.917,24.68,7.822,29.894l39.248,19.059
			c0.456-9.939,3.751-18.68,9.852-26.037c0.084-0.101,3.883-4.618,9.882-9.59c0,0-18.734-9.301-20.248-10.071
			c8.139-13.314,14.816-24.236,22.919-37.492l-8.678,30.134L161.462,186.613z"/>
	</g>
</g>
<g>
	<g>
		<path d="M163.903,97.715c6.312,17.812,10.565,29.814,17.648,49.801c10.642,0,17.818,0,27.336,0
			c4.335-12.23,13.823-39.006,17.648-49.801C200.82,97.715,190.342,97.715,163.903,97.715z"/>
	</g>
</g>
<g>
	<g>
		<path d="M201.229,274.839c-6.791-25.489,5.094-38.577-4.716-66.968c-3.37-9.756-8.986-13.233-15.206-13.233
			c-11.881,0-25.968,12.688-30.822,18.54c-20.745,25.01,10.091,59.597,1.792,80.053c-8.299,20.456-1.148,36.448,10.469,36.571
			c13.293,0.139,22.932,3.481,31.589,3.481c4.611,0,8.945-0.949,13.402-3.833C220.565,321.15,208.02,300.328,201.229,274.839z"/>
	</g>
</g>
<g>
	<g>
		<path d="M429.522,53.7c2.781-4.113,0.664-9.747-4.131-11.017l-16.299-4.313L383.534,81.3l12.291-46.441l-54.967-14.546
			c-4.782-1.266-9.397,2.558-9.043,7.491l8.918,124.178l-2.977,11.249l-43.508,17.738c-6.266-15.77-12.463-30.109-16.51-41.885
			c-7.593-22.091-19.322-35.411-34.955-39.773c-8.898,25.109-17.788,50.193-17.788,50.193s5.41,39.016,20.618,131.353
			c1.052,6.124-3.67,11.674-9.828,11.674c-4.735,0-10.603,0-17.06,0c2.715,8.014,4.97,15.086,5.661,21.749
			c1.864,17.975-9.799,27.454-23.62,29.779v143.542c0,13.475,10.924,24.399,24.399,24.399s24.399-10.924,24.399-24.399V340.108
			c5.883,0,11.137,0,15.515,0c7.09,0,12.442-6.47,11.089-13.456c-20.781-108.067-29.212-154.125-29.212-154.125
			s11.143,26.962,16.559,42.014c3.929,10.916,16.15,16.287,26.808,11.943l34.403-14.025l-11.201,42.325
			c-1.439,5.439,1.803,11.014,7.241,12.453c5.44,1.439,11.014-1.805,12.453-7.24l15.128-57.168l14.188-5.784
			c10.399-4.24,15.392-16.107,11.153-26.505c-2.505-6.142-7.678-10.376-13.631-11.957l0.936-3.538L429.522,53.7z"/>
	</g>
</g>
<g>
</g>
<g>
</g>
<g>
</g>
<g>
</g>
<g>
</g>
<g>
</g>
<g>
</g>
<g>
</g>
<g>
</g>
<g>
</g>
<g>
</g>
<g>
</g>
<g>
</g>
<g>
</g>
<g>
</g>
</svg>
